<svg id="visual" viewBox="0 0 1920 1080" width="1920" height="1080" xmlns="http://www.w3.org/2000/svg" xmlns:xlink="http://www.w3.org/1999/xlink" version="1.1"><rect x="0" y="0" width="1920" height="1080" fill="#f0edeb"></rect><path d="M0 546L64 598.5C128 651 256 756 384 793.5C512 831 640 801 768 747.8C896 694.7 1024 618.3 1152 586.8C1280 555.3 1408 568.7 1536 593.7C1664 618.7 1792 655.3 1856 673.7L1920 692L1920 1081L1856 1081C1792 1081 1664 1081 1536 1081C1408 1081 1280 1081 1152 1081C1024 1081 896 1081 768 1081C640 1081 512 1081 384 1081C256 1081 128 1081 64 1081L0 1081Z" fill="#08d9d6"></path><path d="M0 867L64 871.2C128 875.3 256 883.7 384 855.7C512 827.7 640 763.3 768 733.7C896 704 1024 709 1152 726.2C1280 743.3 1408 772.7 1536 795.3C1664 818 1792 834 1856 842L1920 850L1920 1081L1856 1081C1792 1081 1664 1081 1536 1081C1408 1081 1280 1081 1152 1081C1024 1081 896 1081 768 1081C640 1081 512 1081 384 1081C256 1081 128 1081 64 1081L0 1081Z" fill="#2b7a95"></path><path d="M0 833L64 855.2C128 877.3 256 921.7 384 937.3C512 953 640 940 768 922.3C896 904.7 1024 882.3 1152 880.8C1280 879.3 1408 898.7 1536 894C1664 889.3 1792 860.7 1856 846.3L1920 832L1920 1081L1856 1081C1792 1081 1664 1081 1536 1081C1408 1081 1280 1081 1152 1081C1024 1081 896 1081 768 1081C640 1081 512 1081 384 1081C256 1081 128 1081 64 1081L0 1081Z" fill="#252a34"></path></svg>